<?xml version="1.0" encoding="UTF-8"?>
<svg xmlns="http://www.w3.org/2000/svg" xmlns:xlink="http://www.w3.org/1999/xlink" width="13px" height="13px" viewBox="0 0 13 13" version="1.1">
    <g id="surface1">
        <path style="fill:none;stroke-width:2;stroke-linecap:butt;stroke-linejoin:miter;stroke:rgb(97.254902%,81.960784%,62.745098%);stroke-opacity:1;stroke-miterlimit:4;" d="M 113.922474 37.554711 C 141.958317 29.040283 173.442419 33.753627 196.680684 51.998831 C 217.370237 68.419514 230.863423 95.939364 235.810925 121.786736 C 235.810925 121.786736 235.960849 121.938779 235.960849 121.938779 C 236.110774 121.938779 236.260698 121.786736 236.260698 121.786736 C 236.560546 106.734443 234.611531 91.986236 230.41365 77.542116 C 217.670085 34.665887 180.638785 10.034862 136.561042 12.011426 C 75.541854 14.748206 45.257147 64.61843 46.75639 120.874476 C 46.75639 121.026519 46.75639 121.026519 46.906314 121.026519 C 46.906314 121.026519 46.906314 121.026519 47.056238 121.026519 C 54.852302 84.536111 76.4414 48.80592 113.922474 37.554711 " transform="matrix(0.0260548,0,0,0.0256917,2.383333,0)"/>
        <path style="fill:none;stroke-width:2;stroke-linecap:butt;stroke-linejoin:miter;stroke:rgb(97.254902%,81.960784%,62.745098%);stroke-opacity:1;stroke-miterlimit:4;" d="M 79.889659 137.903333 C 88.735192 101.869055 115.271792 73.588989 155.751352 83.015678 C 182.737725 89.401499 195.931063 113.728437 203.727126 138.207419 C 204.026975 138.815593 204.026975 138.815593 204.026975 138.055376 C 203.427277 103.389489 186.635756 73.893076 150.204153 67.051124 C 145.256651 66.138864 140.459074 65.986821 135.511572 66.747037 C 106.12641 71.308338 86.486328 90.161716 80.939129 118.897912 C 79.889659 124.21943 78.240492 132.429771 79.739735 137.903333 C 79.739735 137.903333 79.739735 137.903333 79.889659 137.903333 " transform="matrix(0.0260548,0,0,0.0256917,2.383333,0)"/>
        <path style="fill:none;stroke-width:2;stroke-linecap:butt;stroke-linejoin:miter;stroke:rgb(97.254902%,81.960784%,62.745098%);stroke-opacity:1;stroke-miterlimit:4;" d="M 180.039087 155.84445 C 178.989617 145.049371 177.940147 134.406335 171.643327 125.435777 C 160.099156 108.558963 137.460588 103.997662 120.519143 115.705001 C 108.075426 124.371473 102.678152 141.096243 103.577697 155.540363 C 103.577697 155.692406 103.727622 155.84445 103.877546 155.84445 C 104.02747 155.84445 104.177395 155.692406 104.177395 155.540363 C 108.075426 141.248287 117.370732 125.891907 131.463616 120.570389 C 148.854834 114.184568 163.997188 125.435777 172.243024 140.183983 C 175.091586 145.201414 177.790223 150.370889 179.43939 155.84445 C 179.43939 155.996493 179.589315 156.148536 179.739239 156.148536 C 179.889163 156.148536 180.039087 155.996493 180.039087 155.84445 " transform="matrix(0.0260548,0,0,0.0256917,2.383333,0)"/>
        <path style="fill:none;stroke-width:2;stroke-linecap:butt;stroke-linejoin:miter;stroke:rgb(56.862745%,56.470588%,56.470588%);stroke-opacity:1;stroke-miterlimit:4;" d="M 222.01789 392.423926 C 221.568117 387.102409 221.268268 383.149281 221.568117 380.260457 C 222.01789 369.161291 223.517133 349.547697 225.765997 321.267631 C 225.915921 318.986981 225.915921 316.70633 225.466149 314.729767 C 225.316224 314.121593 225.016376 313.51342 224.566603 313.209333 C 223.966906 312.905246 223.367208 312.753203 222.767511 312.905246 C 219.619101 313.665463 219.619101 320.659458 219.319253 323.244195 C 216.470691 354.261042 214.371751 384.669715 216.170842 416.446778 C 216.320767 420.551949 217.520161 423.896903 219.91895 426.785727 C 233.711985 444.270714 249.004263 460.995484 266.095632 477.264124 C 266.845254 478.024341 267.894724 477.872298 268.944194 476.960038 C 273.741771 472.246693 271.94268 469.205826 267.894724 464.796568 C 259.948736 456.130097 252.002749 447.311581 244.206685 438.493066 C 240.608502 434.539939 234.611531 430.282724 231.613045 425.721423 C 224.566603 414.774301 228.014862 406.411916 233.562061 395.160707 C 237.909865 386.190148 241.058275 376.76346 243.007291 367.032684 C 244.056761 362.167297 244.206685 356.997822 244.506534 351.828348 C 245.40608 340.121009 249.903809 339.056705 260.248585 336.624011 C 264.296541 335.559708 268.344497 333.735187 272.392453 330.846363 C 285.585791 321.419675 293.981551 304.846948 295.930567 289.034438 C 298.929053 265.163629 281.837683 240.836691 256.050705 244.789818 C 255.750856 244.789818 255.451007 244.637775 255.451007 244.333688 C 255.151159 243.117341 255.151159 241.900995 255.301083 240.532604 C 257.699872 221.83127 256.350553 203.586066 251.103203 185.644949 C 248.55449 176.978477 244.35661 170.136526 235.361152 168.768136 C 211.523189 165.271138 185.436362 163.750705 157.250595 164.054791 C 125.616569 164.358878 93.982543 164.358878 63.098138 168.920179 C 54.852302 170.288569 49.604951 170.744699 44.207677 173.633523 C 34.762446 178.802998 33.563052 186.253123 30.564566 195.831855 C 23.967897 217.574056 23.518124 239.620344 29.215247 261.970719 C 29.515096 263.187066 29.365172 264.555456 28.915399 265.923846 C 28.765475 266.227933 28.61555 266.379976 28.165777 266.53202 C 19.770017 268.508584 14.522667 272.765798 14.522667 282.040443 C 14.522667 300.589734 24.717519 314.88181 35.661992 330.23819 C 41.359115 338.296488 46.456541 345.13844 50.95427 350.764044 C 52.00374 352.284478 53.652907 353.500825 55.451999 354.413085 C 59.350031 356.389649 65.197078 354.261042 65.347002 360.95095 C 65.646851 371.137855 65.796775 388.014669 65.9467 411.885477 C 65.9467 414.774301 64.897229 418.119255 63.248062 420.247862 C 57.850788 426.48164 50.054724 433.475635 44.507525 439.253283 C 35.961841 448.223842 27.266232 457.346443 18.570623 466.317002 C 14.97244 469.966043 15.122364 475.895734 20.369714 477.720254 C 21.119336 478.024341 21.868957 477.720254 22.468654 477.112081 C 39.260175 459.475051 56.20162 442.142107 72.993141 425.265293 C 74.192536 424.048946 75.092082 422.984643 75.541854 422.224426 C 76.4414 420.856036 76.891173 419.639689 76.891173 418.575385 C 76.591324 396.529097 76.291476 374.634853 75.991627 352.740608 C 75.841703 350.459958 75.092082 348.483394 73.742763 346.810917 C 73.442914 346.50683 73.29299 346.354787 72.843217 346.354787 C 71.343974 346.354787 69.994655 346.202743 68.495413 346.202743 C 59.050182 346.0507 55.002226 338.752618 50.354573 331.758624 C 48.705406 329.477973 46.906314 326.893236 44.807374 324.308499 C 34.912371 312.145029 27.416156 299.829517 24.717519 284.017007 C 23.668049 278.391402 28.165777 277.631185 32.513582 277.175055 C 37.760932 276.718925 39.560024 279.911836 40.909342 284.777224 C 46.75639 306.823512 54.552453 328.717756 76.4414 338.752618 C 81.238978 341.033269 87.685722 342.857789 95.63171 344.074136 C 130.114297 349.243611 166.995674 346.354787 193.682198 321.419675 C 208.374779 307.583728 219.169328 291.315088 228.914407 273.373971 C 231.013348 269.420844 232.962363 266.98815 236.260698 264.555456 C 246.755398 256.649201 263.396995 250.871553 274.791241 259.538025 C 288.434352 269.876974 287.384882 288.122178 281.537835 302.262211 C 274.341469 319.443111 260.548433 327.349366 242.707442 329.021843 C 235.960849 329.78206 234.761455 333.887231 234.611531 340.121009 C 234.461606 342.705746 234.311682 346.0507 234.161758 350.155871 C 233.262212 365.664294 229.514105 379.804327 222.467663 392.57597 C 222.167814 393.0321 222.01789 393.0321 222.01789 392.423926 " transform="matrix(0.0260548,0,0,0.0256917,2.383333,0)"/>
        <path style="fill:none;stroke-width:2;stroke-linecap:butt;stroke-linejoin:miter;stroke:rgb(56.862745%,56.470588%,56.470588%);stroke-opacity:1;stroke-miterlimit:4;" d="M 257.549948 307.431685 C 270.89321 304.998991 276.14056 283.408833 268.044648 273.830101 C 263.247071 268.35654 253.951765 267.90041 248.104717 271.549451 C 237.460092 278.239359 237.160244 297.396823 246.755398 304.542861 C 250.203657 307.127598 253.80184 308.191902 257.549948 307.431685 " transform="matrix(0.0260548,0,0,0.0256917,2.383333,0)"/>
        <path style="fill:none;stroke-width:2;stroke-linecap:butt;stroke-linejoin:miter;stroke:rgb(56.862745%,56.470588%,56.470588%);stroke-opacity:1;stroke-miterlimit:4;" d="M 210.923492 176.978477 C 176.740753 174.545784 142.707938 174.241697 108.675123 175.914174 C 97.880574 176.522347 87.385874 176.826434 76.591324 178.346868 C 76.4414 178.498911 76.291476 178.650954 76.141552 178.802998 C 76.141552 178.955041 76.141552 179.107085 76.291476 179.259128 C 76.591324 179.411171 76.891173 179.563215 77.191022 179.563215 C 122.16831 181.387735 166.995674 181.083648 211.823038 178.650954 C 212.122886 178.650954 212.272811 178.498911 212.272811 178.194824 C 212.422735 178.042781 212.422735 177.890738 212.272811 177.586651 C 212.122886 177.282564 211.523189 177.130521 210.923492 176.978477 " transform="matrix(0.0260548,0,0,0.0256917,2.383333,0)"/>
        <path style="fill:none;stroke-width:2;stroke-linecap:butt;stroke-linejoin:miter;stroke:rgb(56.862745%,56.470588%,56.470588%);stroke-opacity:1;stroke-miterlimit:4;" d="M 106.576183 338.904662 C 121.11884 340.729182 135.511572 340.273052 149.75438 337.232185 C 169.99416 333.127014 185.136513 323.244195 198.479776 307.887815 C 206.575688 298.61317 213.622129 288.426264 219.469177 277.479142 C 223.816981 269.2688 227.115316 263.643196 229.36418 260.602329 C 231.912893 257.257374 235.810925 254.976724 241.058275 254.064464 C 241.358124 253.91242 241.657972 253.760377 241.807897 253.45629 C 242.25767 252.239943 242.707442 250.567466 243.157215 248.438859 C 247.055247 228.065048 246.45555 208.603498 241.358124 190.054207 C 241.058275 188.533773 240.308654 186.861296 239.259184 184.884732 C 239.109259 184.580646 238.809411 184.428602 238.509562 184.276559 C 237.010319 184.124516 235.661001 184.276559 234.461606 184.732689 C 229.963877 186.405166 225.616073 187.46947 221.418193 188.077643 C 208.824552 189.902164 196.080987 190.814424 183.187498 190.966467 C 158.150141 191.270554 132.962859 191.270554 107.775578 191.422597 C 87.086025 191.422597 66.546397 190.054207 46.456541 187.01334 C 45.556996 187.01334 44.807374 187.46947 44.507525 188.229687 C 37.011311 206.778977 33.563052 226.544615 37.011311 246.310252 C 40.009797 263.491152 44.65745 280.215923 50.804346 296.484563 C 54.252605 305.607165 56.951242 311.840943 58.600409 314.88181 C 64.747305 325.372802 73.742763 332.366797 85.886631 335.711751 C 91.883602 337.536271 99.82959 338.144445 106.576183 338.904662 " transform="matrix(0.0260548,0,0,0.0256917,2.383333,0)"/>
        <path style="fill:none;stroke-width:2;stroke-linecap:butt;stroke-linejoin:miter;stroke:rgb(56.862745%,56.470588%,56.470588%);stroke-opacity:1;stroke-miterlimit:4;" d="M 263.846768 294.812086 C 265.795784 290.098741 267.7448 278.543446 261.298055 276.414839 C 253.80184 273.982145 247.355096 277.023012 246.45555 284.929267 C 245.705928 289.946698 246.155701 295.268216 249.903809 299.221343 C 254.85131 304.390818 261.447979 300.43769 263.846768 294.812086 " transform="matrix(0.0260548,0,0,0.0256917,2.383333,0)"/>
        <path style=" stroke:none;fill-rule:nonzero;fill:rgb(94.117647%,63.921569%,25.490196%);fill-opacity:1;" d="M 5.351562 0.964844 C 4.375 1.253906 3.8125 2.171875 3.609375 3.109375 C 3.605469 3.109375 3.605469 3.109375 3.605469 3.109375 C 3.601562 3.109375 3.601562 3.109375 3.601562 3.105469 C 3.5625 1.660156 4.351562 0.378906 5.941406 0.308594 C 7.089844 0.257812 8.054688 0.890625 8.386719 1.992188 C 8.496094 2.363281 8.546875 2.742188 8.539062 3.128906 C 8.539062 3.128906 8.535156 3.132812 8.53125 3.132812 C 8.53125 3.132812 8.527344 3.128906 8.527344 3.128906 C 8.398438 2.464844 8.046875 1.757812 7.507812 1.335938 C 6.902344 0.867188 6.082031 0.746094 5.351562 0.964844 Z M 5.351562 0.964844 "/>
        <path style=" stroke:none;fill-rule:nonzero;fill:rgb(94.117647%,63.921569%,25.490196%);fill-opacity:1;" d="M 6.441406 2.132812 C 5.386719 1.890625 4.695312 2.617188 4.464844 3.542969 C 4.460938 3.542969 4.460938 3.542969 4.460938 3.542969 C 4.421875 3.402344 4.464844 3.191406 4.492188 3.054688 C 4.636719 2.316406 5.148438 1.832031 5.914062 1.714844 C 6.042969 1.695312 6.167969 1.699219 6.296875 1.722656 C 7.246094 1.898438 7.683594 2.65625 7.699219 3.546875 C 7.699219 3.566406 7.699219 3.566406 7.691406 3.550781 C 7.488281 2.921875 7.144531 2.296875 6.441406 2.132812 Z M 6.441406 2.132812 "/>
        <path style=" stroke:none;fill-rule:nonzero;fill:rgb(94.117647%,63.921569%,25.490196%);fill-opacity:1;" d="M 7.074219 4.003906 C 7.074219 4.007812 7.070312 4.011719 7.066406 4.011719 C 7.0625 4.011719 7.058594 4.007812 7.058594 4.003906 C 7.015625 3.863281 6.945312 3.730469 6.871094 3.601562 C 6.65625 3.222656 6.261719 2.933594 5.808594 3.097656 C 5.441406 3.234375 5.199219 3.628906 5.097656 3.996094 C 5.097656 4 5.09375 4.003906 5.089844 4.003906 C 5.085938 4.003906 5.082031 4 5.082031 3.996094 C 5.058594 3.625 5.199219 3.195312 5.523438 2.972656 C 5.964844 2.671875 6.554688 2.789062 6.855469 3.222656 C 7.019531 3.453125 7.046875 3.726562 7.074219 4.003906 Z M 7.074219 4.003906 "/>
        <path style=" stroke:none;fill-rule:nonzero;fill:rgb(100%,100%,100%);fill-opacity:1;" d="M 8.179688 10.085938 C 8.363281 9.757812 8.460938 9.394531 8.484375 8.996094 C 8.488281 8.890625 8.492188 8.804688 8.496094 8.738281 C 8.5 8.578125 8.53125 8.472656 8.707031 8.457031 C 9.171875 8.410156 9.53125 8.207031 9.71875 7.765625 C 9.871094 7.402344 9.898438 6.933594 9.542969 6.667969 C 9.246094 6.445312 8.8125 6.59375 8.539062 6.796875 C 8.453125 6.859375 8.402344 6.921875 8.347656 7.023438 C 8.09375 7.484375 7.8125 7.902344 7.429688 8.257812 C 6.734375 8.898438 5.773438 8.972656 4.875 8.839844 C 4.667969 8.808594 4.5 8.761719 4.375 8.703125 C 3.804688 8.445312 3.601562 7.882812 3.449219 7.316406 C 3.414062 7.191406 3.367188 7.109375 3.230469 7.121094 C 3.117188 7.132812 3 7.152344 3.027344 7.296875 C 3.097656 7.703125 3.292969 8.019531 3.550781 8.332031 C 3.605469 8.398438 3.652344 8.464844 3.695312 8.523438 C 3.816406 8.703125 3.921875 8.890625 4.167969 8.894531 C 4.207031 8.894531 4.242188 8.898438 4.28125 8.898438 C 4.292969 8.898438 4.296875 8.902344 4.304688 8.910156 C 4.339844 8.953125 4.359375 9.003906 4.363281 9.0625 C 4.371094 9.625 4.378906 10.1875 4.386719 10.753906 C 4.386719 10.78125 4.375 10.8125 4.351562 10.847656 C 4.339844 10.867188 4.316406 10.894531 4.285156 10.925781 C 3.847656 11.359375 3.40625 11.804688 2.96875 12.257812 C 2.953125 12.273438 2.933594 12.28125 2.914062 12.273438 C 2.777344 12.226562 2.773438 12.074219 2.867188 11.980469 C 3.09375 11.75 3.320312 11.515625 3.542969 11.285156 C 3.6875 11.136719 3.890625 10.957031 4.03125 10.796875 C 4.074219 10.742188 4.101562 10.65625 4.101562 10.582031 C 4.097656 9.96875 4.09375 9.535156 4.085938 9.273438 C 4.082031 9.101562 3.929688 9.15625 3.828125 9.105469 C 3.78125 9.082031 3.738281 9.050781 3.710938 9.011719 C 3.59375 8.867188 3.460938 8.691406 3.3125 8.484375 C 3.027344 8.089844 2.761719 7.722656 2.761719 7.246094 C 2.761719 7.007812 2.898438 6.898438 3.117188 6.847656 C 3.128906 6.84375 3.132812 6.839844 3.136719 6.832031 C 3.148438 6.796875 3.152344 6.761719 3.144531 6.730469 C 2.996094 6.15625 3.007812 5.589844 3.179688 5.03125 C 3.257812 4.785156 3.289062 4.59375 3.535156 4.460938 C 3.675781 4.386719 3.8125 4.375 4.027344 4.339844 C 4.832031 4.222656 5.65625 4.222656 6.480469 4.214844 C 7.214844 4.207031 7.894531 4.246094 8.515625 4.335938 C 8.75 4.371094 8.859375 4.546875 8.925781 4.769531 C 9.0625 5.230469 9.097656 5.699219 9.035156 6.179688 C 9.03125 6.214844 9.03125 6.246094 9.039062 6.277344 C 9.039062 6.285156 9.046875 6.289062 9.054688 6.289062 C 9.726562 6.1875 10.171875 6.8125 10.09375 7.425781 C 10.042969 7.832031 9.824219 8.257812 9.480469 8.5 C 9.375 8.574219 9.269531 8.621094 9.164062 8.648438 C 8.894531 8.710938 8.777344 8.738281 8.753906 9.039062 C 8.746094 9.171875 8.742188 9.304688 8.714844 9.429688 C 8.664062 9.679688 8.582031 9.921875 8.46875 10.152344 C 8.324219 10.441406 8.234375 10.65625 8.417969 10.9375 C 8.496094 11.054688 8.652344 11.164062 8.746094 11.265625 C 8.949219 11.492188 9.15625 11.71875 9.363281 11.941406 C 9.46875 12.054688 9.515625 12.132812 9.390625 12.253906 C 9.363281 12.277344 9.335938 12.28125 9.316406 12.261719 C 8.871094 11.84375 8.472656 11.414062 8.113281 10.964844 C 8.050781 10.890625 8.019531 10.804688 8.015625 10.699219 C 7.96875 9.882812 8.023438 9.101562 8.097656 8.304688 C 8.105469 8.238281 8.105469 8.058594 8.1875 8.039062 C 8.203125 8.035156 8.21875 8.039062 8.234375 8.046875 C 8.246094 8.054688 8.253906 8.070312 8.257812 8.085938 C 8.269531 8.136719 8.269531 8.195312 8.265625 8.253906 C 8.207031 8.980469 8.167969 9.484375 8.15625 9.769531 C 8.152344 9.84375 8.15625 9.945312 8.167969 10.082031 C 8.167969 10.097656 8.171875 10.097656 8.179688 10.085938 Z M 7.878906 4.546875 C 6.988281 4.484375 6.101562 4.476562 5.214844 4.519531 C 4.933594 4.535156 4.660156 4.542969 4.378906 4.582031 C 4.375 4.585938 4.371094 4.589844 4.367188 4.59375 C 4.367188 4.597656 4.367188 4.601562 4.371094 4.605469 C 4.378906 4.609375 4.386719 4.613281 4.394531 4.613281 C 5.566406 4.660156 6.734375 4.652344 7.902344 4.589844 C 7.910156 4.589844 7.914062 4.585938 7.914062 4.578125 C 7.917969 4.574219 7.917969 4.570312 7.914062 4.5625 C 7.910156 4.554688 7.894531 4.550781 7.878906 4.546875 Z M 5.160156 8.707031 C 5.539062 8.753906 5.914062 8.742188 6.285156 8.664062 C 6.8125 8.558594 7.207031 8.304688 7.554688 7.910156 C 7.765625 7.671875 7.949219 7.410156 8.101562 7.128906 C 8.214844 6.917969 8.300781 6.773438 8.359375 6.695312 C 8.425781 6.609375 8.527344 6.550781 8.664062 6.527344 C 8.671875 6.523438 8.679688 6.519531 8.683594 6.511719 C 8.695312 6.480469 8.707031 6.4375 8.71875 6.382812 C 8.820312 5.859375 8.804688 5.359375 8.671875 4.882812 C 8.664062 4.84375 8.644531 4.800781 8.617188 4.75 C 8.613281 4.742188 8.605469 4.738281 8.597656 4.734375 C 8.558594 4.730469 8.523438 4.734375 8.492188 4.746094 C 8.375 4.789062 8.261719 4.816406 8.152344 4.832031 C 7.824219 4.878906 7.492188 4.902344 7.15625 4.90625 C 6.503906 4.914062 5.847656 4.914062 5.191406 4.917969 C 4.652344 4.917969 4.117188 4.882812 3.59375 4.804688 C 3.570312 4.804688 3.550781 4.816406 3.542969 4.835938 C 3.347656 5.3125 3.257812 5.820312 3.347656 6.328125 C 3.425781 6.769531 3.546875 7.199219 3.707031 7.617188 C 3.796875 7.851562 3.867188 8.011719 3.910156 8.089844 C 4.070312 8.359375 4.304688 8.539062 4.621094 8.625 C 4.777344 8.671875 4.984375 8.6875 5.160156 8.707031 Z M 5.160156 8.707031 "/>
        <path style=" stroke:none;fill-rule:nonzero;fill:rgb(100%,100%,100%);fill-opacity:1;" d="M 9.367188 7.035156 C 9.578125 7.28125 9.441406 7.835938 9.09375 7.898438 C 8.996094 7.917969 8.902344 7.890625 8.8125 7.824219 C 8.5625 7.640625 8.570312 7.148438 8.847656 6.976562 C 9 6.882812 9.242188 6.894531 9.367188 7.035156 Z M 9.257812 7.574219 C 9.308594 7.453125 9.359375 7.15625 9.191406 7.101562 C 8.996094 7.039062 8.828125 7.117188 8.804688 7.320312 C 8.785156 7.449219 8.796875 7.585938 8.894531 7.6875 C 9.023438 7.820312 9.195312 7.71875 9.257812 7.574219 Z M 9.257812 7.574219 "/>
    </g>
</svg>
