<?xml version="1.0" encoding="UTF-8"?>
<svg xmlns="http://www.w3.org/2000/svg" xmlns:xlink="http://www.w3.org/1999/xlink" width="38px" height="38px" viewBox="0 0 38 60" version="1.1">
<g id="surface1">
<path style="fill:none;stroke-width:2;stroke-linecap:butt;stroke-linejoin:miter;stroke:rgb(97.254902%,81.960784%,62.745098%);stroke-opacity:1;stroke-miterlimit:4;" d="M 113.984786 37.488802 C 141.985609 29.088411 173.494655 33.733333 196.622944 52.049479 C 217.347451 68.487891 230.795641 95.962109 235.765625 121.75625 C 235.798109 121.855078 235.895559 121.953906 236.025493 121.953906 C 236.155428 121.953906 236.220395 121.822135 236.220395 121.723307 C 236.610197 106.701432 234.661184 91.943099 230.340872 77.48125 C 217.639803 34.721615 180.641036 10.014583 136.528372 12.024089 C 75.556743 14.824219 45.314556 64.633594 46.711349 120.932682 C 46.711349 120.998568 46.776316 121.064453 46.841283 121.064453 C 46.90625 121.064453 46.971217 121.03151 47.003701 120.965625 C 54.897204 84.498047 76.368832 48.755208 113.984786 37.488802 " transform="matrix(0.120253,0,0,0.118577,0,0)"/>
<path style="fill:none;stroke-width:2;stroke-linecap:butt;stroke-linejoin:miter;stroke:rgb(97.254902%,81.960784%,62.745098%);stroke-opacity:1;stroke-miterlimit:4;" d="M 79.844572 137.865234 C 88.712582 101.825911 115.284128 73.59401 155.758635 83.08151 C 182.784951 89.439453 196.005757 113.784115 203.769326 138.194661 C 203.964227 138.78763 204.061678 138.754688 204.029194 138.128776 C 203.412007 103.341276 186.650493 73.857552 150.268914 67.038411 C 145.331414 66.116016 140.426398 66.05013 135.553865 66.807812 C 106.188734 71.353906 86.503701 90.230078 80.981497 118.890234 C 79.942023 124.292839 78.285362 132.495573 79.779605 137.865234 C 79.812089 137.964063 79.812089 137.964063 79.844572 137.865234 " transform="matrix(0.120253,0,0,0.118577,0,0)"/>
<path style="fill:none;stroke-width:2;stroke-linecap:butt;stroke-linejoin:miter;stroke:rgb(97.254902%,81.960784%,62.745098%);stroke-opacity:1;stroke-miterlimit:4;" d="M 179.991365 155.786068 C 179.016859 144.980859 177.944901 134.472135 171.675576 125.379948 C 160.143914 108.579167 137.502878 103.934245 120.481497 115.727734 C 108.040296 124.325781 102.615543 141.060677 103.557566 155.522526 C 103.590049 155.654297 103.6875 155.786068 103.849918 155.786068 C 103.979852 155.786068 104.109786 155.720182 104.14227 155.588411 C 108.040296 141.324219 117.395559 125.841146 131.428454 120.636198 C 148.839638 114.146484 163.976974 125.412891 172.26028 140.204167 C 175.118832 145.244401 177.847451 150.383464 179.406661 155.884896 C 179.439145 156.049609 179.601562 156.18138 179.76398 156.148438 C 179.926398 156.115495 180.023849 155.950781 179.991365 155.786068 " transform="matrix(0.120253,0,0,0.118577,0,0)"/>
<path style="fill:none;stroke-width:2;stroke-linecap:butt;stroke-linejoin:miter;stroke:rgb(56.862745%,56.470588%,56.470588%);stroke-opacity:1;stroke-miterlimit:4;" d="M 221.960115 392.413542 C 221.505345 387.175651 221.342928 383.123698 221.505345 380.257682 C 222.090049 369.123047 223.519326 349.489193 225.793174 321.257292 C 225.988076 318.918359 225.890625 316.744141 225.500822 314.701693 C 225.370888 314.108724 225.013569 313.548698 224.493832 313.219271 C 223.941612 312.889844 223.324424 312.758073 222.707237 312.922786 C 219.556332 313.680469 219.556332 320.697266 219.328947 323.233854 C 216.437911 354.2 214.358964 384.60612 216.145559 416.461719 C 216.372944 420.513672 217.574836 423.840885 219.913651 426.838672 C 233.686678 444.199479 249.051398 461.00026 266.040296 477.208073 C 266.917352 478.031641 267.859375 477.932813 268.898849 476.911589 C 273.738898 472.200781 271.887336 469.202995 267.891859 464.788672 C 259.965872 456.058854 252.072368 447.329036 244.178865 438.566276 C 240.573191 434.514323 234.661184 430.330599 231.672697 425.71862 C 224.623766 414.814583 227.969572 406.414193 233.491776 395.114844 C 237.877056 386.18737 241.060444 376.831641 243.074424 367.047656 C 244.048931 362.205078 244.211349 356.934245 244.568668 351.828125 C 245.348273 340.100521 249.863487 339.013411 260.290707 336.575651 C 264.351151 335.620313 268.379112 333.709635 272.439556 330.810677 C 285.562911 321.35612 294.008635 304.785937 295.990132 289.00638 C 298.978618 265.155859 281.827303 240.844141 256.100329 244.764323 C 255.74301 244.797266 255.450658 244.599609 255.385691 244.270182 C 255.125822 243.084245 255.093339 241.832422 255.255757 240.514714 C 257.75699 221.902083 256.360197 203.61888 251.097862 185.632161 C 248.531661 176.968229 244.40625 170.116146 235.408306 168.83138 C 211.532895 165.339453 185.481086 163.72526 157.252878 164.021745 C 125.613898 164.351172 94.039885 164.351172 63.050576 168.963151 C 54.799753 170.214974 49.602385 170.676172 44.210115 173.641016 C 34.822368 178.845964 33.523026 186.258073 30.63199 195.811458 C 23.972862 217.553646 23.518092 239.592318 29.202714 261.993359 C 29.527549 263.245182 29.430099 264.562891 28.910362 265.913542 C 28.780428 266.210026 28.553043 266.440625 28.228207 266.50651 C 19.814967 268.581901 14.487664 272.69974 14.487664 281.989583 C 14.455181 300.602214 24.784951 314.866406 35.699424 330.250651 C 41.351562 338.222786 46.418997 345.07487 50.901727 350.806901 C 52.071135 352.289323 53.597862 353.508203 55.514391 354.463542 C 59.347451 356.341276 65.162007 354.232943 65.324424 360.986198 C 65.584293 371.066667 65.811678 388.032161 65.974095 411.816797 C 66.006579 414.847526 64.934622 418.075911 63.18051 420.184245 C 57.853207 426.542188 50.024671 433.427214 44.534951 439.22513 C 35.926809 448.284375 27.253701 457.310677 18.548109 466.304036 C 15.007401 469.99362 15.137336 475.824479 20.334704 477.669271 C 21.179276 477.965755 21.893914 477.768099 22.511102 477.142188 C 39.305099 459.41901 56.131579 442.124089 72.958059 425.257422 C 74.192434 424.038542 75.037007 423.05026 75.52426 422.292578 C 76.401316 420.908984 76.856086 419.624219 76.856086 418.504167 C 76.596217 396.564323 76.303865 374.657422 75.946546 352.750521 C 75.914062 350.510417 75.166941 348.533854 73.737664 346.820833 C 73.51028 346.557292 73.250411 346.425521 72.893092 346.392578 C 71.398849 346.29375 69.937089 346.260807 68.442845 346.227865 C 58.990132 345.997266 55.059622 338.815755 50.38199 331.831901 C 48.757812 329.460026 46.90625 326.95638 44.794819 324.353906 C 34.854852 312.099219 27.448602 299.811589 24.655016 284.032031 C 23.68051 278.332943 28.16324 277.608203 32.451069 277.245833 C 37.810855 276.784635 39.629934 279.947135 40.929276 284.822656 C 46.743832 306.828385 54.539885 328.669401 76.368832 338.815755 C 81.273849 341.088802 87.673109 342.834766 95.566612 344.020703 C 130.129112 349.192708 167.062911 346.29375 193.634457 321.389063 C 208.414474 307.553125 219.199013 291.246484 228.944079 273.358594 C 231.05551 269.438411 232.972039 267.000651 236.252878 264.529948 C 246.777549 256.590755 263.344161 250.825781 274.843339 259.555599 C 288.421464 269.899609 287.349507 288.182813 281.534951 302.249349 C 274.388569 319.4125 260.583059 327.417578 242.652138 329.097656 C 235.895559 329.723568 234.823602 333.841406 234.596217 340.067578 C 234.498766 342.702995 234.368832 346.096094 234.141447 350.213932 C 233.329359 365.697005 229.463816 379.796484 222.512336 392.51237 C 222.219984 393.072396 222.025082 393.039453 221.960115 392.413542 " transform="matrix(0.120253,0,0,0.118577,0,0)"/>
<path style="fill:none;stroke-width:2;stroke-linecap:butt;stroke-linejoin:miter;stroke:rgb(56.862745%,56.470588%,56.470588%);stroke-opacity:1;stroke-miterlimit:4;" d="M 257.562089 307.48724 C 270.880345 305.049479 276.207648 283.472005 267.989309 273.852734 C 263.214227 268.285417 253.988898 267.923047 248.044408 271.61263 C 237.389803 278.234115 237.129934 297.439714 246.712582 304.588281 C 250.188322 307.190755 253.82648 308.146094 257.562089 307.48724 " transform="matrix(0.120253,0,0,0.118577,0,0)"/>
<path style="fill:none;stroke-width:2;stroke-linecap:butt;stroke-linejoin:miter;stroke:rgb(56.862745%,56.470588%,56.470588%);stroke-opacity:1;stroke-miterlimit:4;" d="M 210.883224 177.034115 C 176.807977 174.563411 142.73273 174.233984 108.625 175.979948 C 97.905428 176.539974 87.445724 176.836458 76.596217 178.417708 C 76.433799 178.450651 76.271382 178.582422 76.206414 178.747135 C 76.173931 178.944792 76.206414 179.142448 76.336349 179.274219 C 76.53125 179.438932 76.823602 179.53776 77.245888 179.53776 C 122.105674 181.448438 166.965461 181.11901 211.825247 178.582422 C 212.052632 178.582422 212.247533 178.450651 212.344984 178.252995 C 212.409951 178.088281 212.409951 177.857682 212.280016 177.660026 C 212.052632 177.297656 211.565378 177.067057 210.883224 177.034115 " transform="matrix(0.120253,0,0,0.118577,0,0)"/>
<path style="fill:none;stroke-width:2;stroke-linecap:butt;stroke-linejoin:miter;stroke:rgb(56.862745%,56.470588%,56.470588%);stroke-opacity:1;stroke-miterlimit:4;" d="M 106.61102 338.947526 C 121.098684 340.792318 135.456414 340.232292 149.716694 337.300391 C 169.921464 333.149609 185.123766 323.233854 198.50699 307.882552 C 206.627878 298.592708 213.611842 288.479297 219.458882 277.509375 C 223.876645 269.240755 227.189967 263.607552 229.398849 260.675651 C 231.965049 257.282552 235.830592 255.042448 240.995477 254.021224 C 241.352796 253.955339 241.645148 253.72474 241.775082 253.395313 C 242.327303 252.209375 242.782072 250.595182 243.204359 248.486849 C 247.037418 228.095313 246.452714 208.626172 241.417763 190.11237 C 241.027961 188.597005 240.280839 186.851042 239.273849 184.874479 C 239.111431 184.577995 238.851562 184.413281 238.494243 184.347396 C 237.064967 184.14974 235.733141 184.28151 234.498766 184.742708 C 229.983553 186.422786 225.630757 187.542839 221.472862 188.135807 C 208.804276 189.914714 196.070724 190.870052 183.23972 190.96888 C 158.097451 191.199479 132.922697 191.33125 107.747944 191.430078 C 87.055921 191.495964 66.591283 190.046484 46.386513 187.081641 C 45.574424 186.982812 44.794819 187.411068 44.469984 188.201693 C 36.966283 206.748437 33.587993 226.579948 37.03125 246.31263 C 40.05222 263.475781 44.632401 280.210677 50.804276 296.484375 C 54.3125 305.675391 56.943668 311.802734 58.665296 314.833464 C 64.707237 325.342188 73.770148 332.293099 85.85403 335.785026 C 91.831003 337.498047 99.789474 338.123958 106.61102 338.947526 " transform="matrix(0.120253,0,0,0.118577,0,0)"/>
<path style="fill:none;stroke-width:2;stroke-linecap:butt;stroke-linejoin:miter;stroke:rgb(56.862745%,56.470588%,56.470588%);stroke-opacity:1;stroke-miterlimit:4;" d="M 263.831414 294.804297 C 265.845395 290.159375 267.794408 278.563542 261.297697 276.455208 C 253.793997 274.017448 247.362253 277.08112 246.387747 284.888542 C 245.738076 289.961719 246.225329 295.265495 249.89597 299.152734 C 254.865954 304.390625 261.395148 300.4375 263.831414 294.804297 " transform="matrix(0.120253,0,0,0.118577,0,0)"/>
<path style=" stroke:none;fill-rule:nonzero;fill:rgb(94.117647%,63.921569%,25.490196%);fill-opacity:1;" d="M 13.707031 4.445312 C 9.183594 5.78125 6.601562 10.019531 5.652344 14.34375 C 5.648438 14.351562 5.640625 14.355469 5.632812 14.355469 C 5.625 14.355469 5.617188 14.347656 5.617188 14.339844 C 5.449219 7.664062 9.085938 1.757812 16.417969 1.425781 C 21.722656 1.1875 26.171875 4.117188 27.699219 9.1875 C 28.21875 10.902344 28.453125 12.652344 28.40625 14.433594 C 28.40625 14.445312 28.398438 14.460938 28.382812 14.460938 C 28.367188 14.460938 28.355469 14.449219 28.351562 14.4375 C 27.753906 11.378906 26.136719 8.121094 23.644531 6.171875 C 20.863281 4 17.074219 3.449219 13.707031 4.445312 Z M 13.707031 4.445312 "/>
<path style=" stroke:none;fill-rule:nonzero;fill:rgb(94.117647%,63.921569%,25.490196%);fill-opacity:1;" d="M 18.730469 9.851562 C 13.863281 8.726562 10.667969 12.074219 9.601562 16.347656 C 9.597656 16.359375 9.597656 16.359375 9.59375 16.347656 C 9.414062 15.710938 9.613281 14.738281 9.738281 14.097656 C 10.402344 10.699219 12.769531 8.460938 16.300781 7.921875 C 16.886719 7.832031 17.476562 7.839844 18.070312 7.949219 C 22.445312 8.757812 24.460938 12.253906 24.535156 16.378906 C 24.539062 16.453125 24.527344 16.457031 24.503906 16.386719 C 23.570312 13.492188 21.980469 10.605469 18.730469 9.851562 Z M 18.730469 9.851562 "/>
<path style=" stroke:none;fill-rule:nonzero;fill:rgb(94.117647%,63.921569%,25.490196%);fill-opacity:1;" d="M 21.644531 18.472656 C 21.648438 18.492188 21.636719 18.511719 21.617188 18.515625 C 21.597656 18.519531 21.578125 18.503906 21.574219 18.484375 C 21.386719 17.832031 21.058594 17.222656 20.714844 16.625 C 19.71875 14.871094 17.898438 13.535156 15.804688 14.304688 C 14.117188 14.921875 12.992188 16.757812 12.523438 18.449219 C 12.519531 18.464844 12.503906 18.472656 12.488281 18.472656 C 12.46875 18.472656 12.457031 18.457031 12.453125 18.441406 C 12.339844 16.726562 12.992188 14.742188 14.488281 13.722656 C 16.535156 12.324219 19.257812 12.875 20.644531 14.867188 C 21.398438 15.945312 21.527344 17.191406 21.644531 18.472656 Z M 21.644531 18.472656 "/>
<path style=" stroke:none;fill-rule:nonzero;fill:rgb(100%,100%,100%);fill-opacity:1;" d="M 26.757812 46.542969 C 27.59375 45.035156 28.058594 43.363281 28.15625 41.527344 C 28.183594 41.039062 28.199219 40.636719 28.210938 40.324219 C 28.238281 39.585938 28.367188 39.097656 29.179688 39.023438 C 31.335938 38.824219 32.996094 37.875 33.855469 35.839844 C 34.554688 34.171875 34.683594 32.003906 33.050781 30.777344 C 31.667969 29.742188 29.675781 30.425781 28.410156 31.367188 C 28.015625 31.660156 27.785156 31.949219 27.53125 32.414062 C 26.359375 34.535156 25.0625 36.46875 23.285156 38.109375 C 20.089844 41.0625 15.648438 41.40625 11.492188 40.792969 C 10.542969 40.652344 9.773438 40.445312 9.183594 40.175781 C 6.558594 38.972656 5.621094 36.382812 4.921875 33.773438 C 4.765625 33.195312 4.546875 32.820312 3.902344 32.875 C 3.386719 32.917969 2.847656 33.003906 2.964844 33.679688 C 3.300781 35.550781 4.191406 37.007812 5.386719 38.460938 C 5.640625 38.769531 5.863281 39.066406 6.058594 39.347656 C 6.621094 40.175781 7.09375 41.027344 8.230469 41.054688 C 8.410156 41.058594 8.585938 41.0625 8.765625 41.074219 C 8.808594 41.078125 8.839844 41.09375 8.867188 41.125 C 9.039062 41.328125 9.128906 41.5625 9.132812 41.828125 C 9.175781 44.425781 9.210938 47.023438 9.242188 49.625 C 9.242188 49.757812 9.1875 49.910156 9.082031 50.074219 C 9.023438 50.164062 8.921875 50.28125 8.773438 50.425781 C 6.75 52.425781 4.726562 54.476562 2.707031 56.578125 C 2.632812 56.652344 2.546875 56.675781 2.445312 56.640625 C 1.820312 56.421875 1.804688 55.730469 2.230469 55.292969 C 3.277344 54.226562 4.320312 53.15625 5.355469 52.082031 C 6.015625 51.394531 6.957031 50.578125 7.597656 49.824219 C 7.808594 49.574219 7.9375 49.191406 7.933594 48.832031 C 7.914062 46.011719 7.886719 44 7.855469 42.804688 C 7.835938 42.003906 7.136719 42.253906 6.675781 42.03125 C 6.445312 41.917969 6.261719 41.773438 6.121094 41.597656 C 5.582031 40.917969 4.972656 40.105469 4.292969 39.160156 C 2.980469 37.335938 1.738281 35.644531 1.742188 33.4375 C 1.742188 32.335938 2.382812 31.847656 3.394531 31.601562 C 3.433594 31.59375 3.460938 31.566406 3.476562 31.53125 C 3.539062 31.371094 3.550781 31.214844 3.511719 31.066406 C 2.828125 28.410156 2.882812 25.796875 3.683594 23.21875 C 4.03125 22.085938 4.1875 21.207031 5.316406 20.589844 C 5.964844 20.238281 6.589844 20.183594 7.582031 20.035156 C 11.308594 19.488281 15.105469 19.488281 18.910156 19.449219 C 22.304688 19.414062 25.4375 19.605469 28.308594 20.019531 C 29.390625 20.171875 29.886719 20.984375 30.195312 22.011719 C 30.828125 24.144531 30.996094 26.3125 30.695312 28.519531 C 30.675781 28.675781 30.679688 28.824219 30.710938 28.964844 C 30.71875 29.003906 30.753906 29.027344 30.796875 29.023438 C 33.890625 28.558594 35.953125 31.441406 35.59375 34.269531 C 35.355469 36.140625 34.339844 38.105469 32.761719 39.226562 C 32.273438 39.570312 31.789062 39.796875 31.300781 39.910156 C 30.046875 40.199219 29.503906 40.328125 29.410156 41.71875 C 29.367188 42.324219 29.347656 42.949219 29.230469 43.523438 C 28.988281 44.683594 28.605469 45.792969 28.078125 46.851562 C 27.414062 48.191406 27.011719 49.1875 27.859375 50.480469 C 28.21875 51.027344 28.929688 51.523438 29.363281 52.003906 C 30.3125 53.042969 31.261719 54.078125 32.214844 55.113281 C 32.695312 55.636719 32.917969 55.992188 32.335938 56.550781 C 32.210938 56.671875 32.097656 56.683594 31.992188 56.585938 C 29.949219 54.664062 28.101562 52.671875 26.445312 50.613281 C 26.164062 50.257812 26.019531 49.863281 25.992188 49.382812 C 25.777344 45.605469 26.027344 42 26.375 38.328125 C 26.402344 38.027344 26.402344 37.195312 26.78125 37.105469 C 26.855469 37.085938 26.929688 37.101562 26.996094 37.140625 C 27.058594 37.179688 27.101562 37.246094 27.117188 37.316406 C 27.164062 37.558594 27.175781 37.816406 27.152344 38.09375 C 26.878906 41.441406 26.707031 43.769531 26.636719 45.089844 C 26.617188 45.429688 26.636719 45.910156 26.691406 46.53125 C 26.699219 46.605469 26.722656 46.609375 26.757812 46.542969 Z M 25.359375 20.992188 C 21.261719 20.699219 17.164062 20.660156 13.0625 20.867188 C 11.773438 20.933594 10.515625 20.96875 9.210938 21.15625 C 9.191406 21.160156 9.171875 21.175781 9.164062 21.195312 C 9.160156 21.21875 9.164062 21.242188 9.179688 21.257812 C 9.203125 21.277344 9.238281 21.289062 9.289062 21.289062 C 14.683594 21.515625 20.078125 21.476562 25.472656 21.175781 C 25.5 21.175781 25.523438 21.160156 25.535156 21.136719 C 25.542969 21.117188 25.542969 21.089844 25.527344 21.066406 C 25.5 21.023438 25.441406 20.996094 25.359375 20.992188 Z M 12.820312 40.191406 C 14.5625 40.410156 16.289062 40.34375 18.003906 39.996094 C 20.433594 39.503906 22.261719 38.328125 23.871094 36.507812 C 24.847656 35.40625 25.6875 34.207031 26.390625 32.90625 C 26.921875 31.925781 27.320312 31.257812 27.585938 30.910156 C 27.894531 30.507812 28.359375 30.242188 28.980469 30.121094 C 29.023438 30.113281 29.058594 30.085938 29.074219 30.046875 C 29.140625 29.90625 29.195312 29.714844 29.246094 29.464844 C 29.707031 27.046875 29.636719 24.738281 29.03125 22.542969 C 28.984375 22.363281 28.894531 22.15625 28.773438 21.921875 C 28.753906 21.886719 28.722656 21.867188 28.679688 21.859375 C 28.507812 21.835938 28.347656 21.851562 28.199219 21.90625 C 27.65625 22.105469 27.132812 22.238281 26.632812 22.308594 C 25.109375 22.519531 23.578125 22.632812 22.035156 22.644531 C 19.011719 22.671875 15.984375 22.6875 12.957031 22.699219 C 10.46875 22.707031 8.007812 22.535156 5.578125 22.183594 C 5.480469 22.171875 5.386719 22.222656 5.347656 22.316406 C 4.445312 24.515625 4.039062 26.867188 4.453125 29.207031 C 4.816406 31.242188 5.367188 33.226562 6.109375 35.15625 C 6.53125 36.246094 6.847656 36.972656 7.054688 37.332031 C 7.78125 38.578125 8.871094 39.402344 10.324219 39.816406 C 11.042969 40.019531 12 40.09375 12.820312 40.191406 Z M 12.820312 40.191406 "/>
<path style=" stroke:none;fill-rule:nonzero;fill:rgb(100%,100%,100%);fill-opacity:1;" d="M 32.226562 32.472656 C 33.214844 33.613281 32.574219 36.171875 30.972656 36.460938 C 30.523438 36.539062 30.085938 36.425781 29.667969 36.117188 C 28.515625 35.269531 28.546875 32.992188 29.828125 32.207031 C 30.542969 31.769531 31.652344 31.8125 32.226562 32.472656 Z M 31.726562 34.957031 C 31.96875 34.40625 32.203125 33.03125 31.421875 32.78125 C 30.519531 32.492188 29.746094 32.855469 29.628906 33.78125 C 29.550781 34.382812 29.609375 35.011719 30.050781 35.472656 C 30.648438 36.09375 31.433594 35.625 31.726562 34.957031 Z M 31.726562 34.957031 "/>
</g>
</svg>
