<svg xmlns="http://www.w3.org/2000/svg" version="1.1" viewBox="0.00 0.00 316.00 506.00">
    <g stroke-width="2.00" fill="none" stroke-linecap="butt">
        <path stroke="#f8d1a0" vector-effect="non-scaling-stroke" d="   M 113.99 37.49   C 141.98 29.09 173.49 33.74 196.61 52.05   C 217.36 68.48 230.81 95.97 235.78 121.75   A 0.22 0.22 0.0 0 0 236.22 121.71   Q 236.81 99.19 230.35 77.48   C 217.64 34.71 180.63 10.02 136.52 12.03   C 75.55 14.81 45.33 64.64 46.70 120.93   A 0.15 0.15 0.0 0 0 46.99 120.96   C 54.90 84.49 76.38 48.77 113.99 37.49"/>
        <path stroke="#f8d1a0" vector-effect="non-scaling-stroke" d="   M 79.85 137.88   C 88.70 101.84 115.27 73.58 155.75 83.08   C 182.78 89.43 196.01 113.78 203.77 138.18   Q 204.05 139.08 204.04 138.14   C 203.41 103.34 186.65 73.87 150.26 67.05   Q 142.87 65.67 135.55 66.80   C 106.19 71.34 86.51 90.23 80.97 118.88   C 79.93 124.28 78.30 132.51 79.78 137.88   Q 79.81 138.01 79.85 137.88"/>
        <path stroke="#f8d1a0" vector-effect="non-scaling-stroke" d="   M 180.00 155.79   C 179.03 144.99 177.94 134.47 171.68 125.37   C 160.14 108.58 137.49 103.95 120.47 115.73   C 108.04 124.33 102.62 141.06 103.57 155.53   A 0.30 0.30 0.0 0 0 104.15 155.59   C 108.05 141.33 117.39 125.84 131.42 120.62   C 148.84 114.15 163.97 125.41 172.27 140.19   C 175.11 145.24 177.86 150.37 179.41 155.90   A 0.30 0.30 0.0 0 0 180.00 155.79"/>
        <path stroke="#919090" vector-effect="non-scaling-stroke" d="   M 221.97 392.40   Q 221.27 384.57 221.50 380.25   Q 222.40 363.58 225.79 321.26   Q 226.08 317.75 225.49 314.71   A 2.28 2.28 0.0 0 0 222.70 312.92   C 219.57 313.69 219.57 320.71 219.33 323.25   C 216.45 354.19 214.35 384.62 216.15 416.46   C 216.38 420.53 217.56 423.85 219.92 426.83   Q 240.56 452.90 266.05 477.21   Q 267.33 478.44 268.90 476.91   C 273.73 472.21 271.90 469.21 267.90 464.79   Q 256.02 451.70 244.19 438.56   C 240.56 434.52 234.65 430.32 231.67 425.72   C 224.61 414.82 227.96 406.43 233.50 395.13   Q 240.06 381.71 243.06 367.04   C 244.05 362.19 244.21 356.93 244.56 351.82   C 245.35 340.10 249.87 339.01 260.29 336.58   Q 266.36 335.16 272.43 330.80   C 285.56 321.37 294.01 304.79 296.00 289.01   C 298.99 265.14 281.84 240.86 256.09 244.75   A 0.64 0.63 -10.1 0 1 255.37 244.26   Q 255.00 242.52 255.27 240.50   Q 259.00 212.60 251.09 185.64   C 248.54 176.96 244.41 170.13 235.42 168.82   Q 199.60 163.59 157.25 164.02   C 125.63 164.34 94.03 164.34 63.06 168.97   C 54.79 170.21 49.61 170.67 44.22 173.65   C 34.83 178.85 33.53 186.25 30.62 195.81   Q 20.67 228.41 29.20 261.98   Q 29.68 263.88 28.91 265.91   A 1.00 0.97 -85.6 0 1 28.23 266.51   C 19.81 268.59 14.50 272.70 14.49 282.00   C 14.46 300.59 24.77 314.88 35.70 330.26   Q 44.18 342.19 50.91 350.82   Q 52.65 353.04 55.50 354.45   C 59.34 356.35 65.16 354.22 65.33 361.00   Q 65.71 376.12 65.98 411.83   C 66.01 414.85 64.95 418.08 63.19 420.19   C 57.86 426.55 50.04 433.44 44.54 439.21   Q 31.60 452.80 18.56 466.31   C 15.01 469.98 15.14 475.82 20.35 477.66   Q 21.60 478.10 22.51 477.14   Q 47.71 450.57 72.97 425.26   Q 74.80 423.44 75.53 422.28   Q 76.86 420.21 76.84 418.50   Q 76.48 385.62 75.94 352.75   Q 75.89 349.37 73.75 346.82   Q 73.41 346.42 72.89 346.39   Q 70.67 346.27 68.43 346.22   C 58.99 346.00 55.05 338.83 50.37 331.84   Q 47.97 328.25 44.81 324.36   C 34.86 312.11 27.45 299.80 24.67 284.02   C 23.67 278.34 28.15 277.61 32.45 277.24   C 37.82 276.77 39.63 279.96 40.92 284.82   C 46.76 306.84 54.54 328.67 76.36 338.81   Q 83.75 342.24 95.56 344.01   C 130.12 349.20 167.07 346.31 193.65 321.40   C 208.43 307.55 219.20 291.25 228.93 273.35   C 231.05 269.45 232.98 266.99 236.26 264.52   C 246.78 256.58 263.35 250.81 274.84 259.56   C 288.41 269.89 287.34 288.19 281.52 302.25   C 274.40 319.41 260.57 327.42 242.65 329.09   C 235.89 329.71 234.83 333.83 234.60 340.08   Q 234.46 344.03 234.14 350.23   Q 232.93 373.43 222.52 392.52   Q 222.05 393.37 221.97 392.40"/>
        <path stroke="#919090" vector-effect="non-scaling-stroke" d="   M 257.55 307.48   C 270.88 305.05 276.22 283.48 267.99 273.85   C 263.23 268.28 253.99 267.92 248.03 271.62   C 237.38 278.23 237.12 297.45 246.71 304.60   Q 251.95 308.50 257.55 307.48"/>
        <path stroke="#919090" vector-effect="non-scaling-stroke" d="   M 210.88 177.02   Q 159.79 173.34 108.64 175.98   C 97.91 176.53 87.45 176.82 76.61 178.43   A 0.48 0.48 0.0 0 0 76.35 179.26   Q 76.63 179.52 77.25 179.55   Q 144.54 182.40 211.83 178.59   A 0.59 0.59 0.0 0 0 212.29 177.67   Q 211.91 177.09 210.88 177.02"/>
        <path stroke="#919090" vector-effect="non-scaling-stroke" d="   M 106.62 338.96   Q 128.32 341.69 149.71 337.31   C 169.93 333.16 185.11 323.22 198.52 307.88   Q 210.69 293.96 219.47 277.51   Q 226.09 265.09 229.39 260.69   Q 233.25 255.56 240.99 254.02   A 1.12 1.12 0.0 0 0 241.79 253.39   Q 242.60 251.63 243.19 248.49   Q 248.97 217.88 241.43 190.11   Q 240.81 187.82 239.26 184.89   Q 239.02 184.43 238.51 184.36   Q 236.34 184.06 234.49 184.75   Q 227.73 187.24 221.48 188.12   Q 202.46 190.80 183.25 190.97   Q 145.50 191.29 107.75 191.42   Q 76.71 191.52 46.39 187.09   A 1.79 1.78 -74.7 0 0 44.48 188.19   C 36.96 206.75 33.59 226.58 37.04 246.31   Q 41.55 272.06 50.82 296.47   Q 56.06 310.26 58.68 314.84   Q 67.71 330.57 85.87 335.78   C 91.84 337.49 99.78 338.11 106.62 338.96"/>
        <path stroke="#919090" vector-effect="non-scaling-stroke" d="   M 263.83 294.80   C 265.83 290.15 267.80 278.56 261.31 276.45   C 253.81 274.01 247.35 277.08 246.38 284.89   C 245.75 289.97 246.21 295.28 249.90 299.15   C 254.88 304.38 261.39 300.44 263.83 294.80"/>
    </g>
    <path fill="#f0a341" d="   M 113.99 37.49   C 76.38 48.77 54.90 84.49 46.99 120.96   A 0.15 0.15 0.0 0 1 46.70 120.93   C 45.33 64.64 75.55 14.81 136.52 12.03   C 180.63 10.02 217.64 34.71 230.35 77.48   Q 236.81 99.19 236.22 121.71   A 0.22 0.22 0.0 0 1 235.78 121.75   C 230.81 95.97 217.36 68.48 196.61 52.05   C 173.49 33.74 141.98 29.09 113.99 37.49   Z"/>
    <path fill="#f0a341" d="   M 155.75 83.08   C 115.27 73.58 88.70 101.84 79.85 137.88   Q 79.81 138.01 79.78 137.88   C 78.30 132.51 79.93 124.28 80.97 118.88   C 86.51 90.23 106.19 71.34 135.55 66.80   Q 142.87 65.67 150.26 67.05   C 186.65 73.87 203.41 103.34 204.04 138.14   Q 204.05 139.08 203.77 138.18   C 196.01 113.78 182.78 89.43 155.75 83.08   Z"/>
    <path fill="#f0a341" d="   M 180.00 155.79   A 0.30 0.30 0.0 0 1 179.41 155.90   C 177.86 150.37 175.11 145.24 172.27 140.19   C 163.97 125.41 148.84 114.15 131.42 120.62   C 117.39 125.84 108.05 141.33 104.15 155.59   A 0.30 0.30 0.0 0 1 103.57 155.53   C 102.62 141.06 108.04 124.33 120.47 115.73   C 137.49 103.95 160.14 108.58 171.68 125.37   C 177.94 134.47 179.03 144.99 180.00 155.79   Z"/>
    <path fill="#ffffff" d="   M 222.52 392.52   Q 232.93 373.43 234.14 350.23   Q 234.46 344.03 234.60 340.08   C 234.83 333.83 235.89 329.71 242.65 329.09   C 260.57 327.42 274.40 319.41 281.52 302.25   C 287.34 288.19 288.41 269.89 274.84 259.56   C 263.35 250.81 246.78 256.58 236.26 264.52   C 232.98 266.99 231.05 269.45 228.93 273.35   C 219.20 291.25 208.43 307.55 193.65 321.40   C 167.07 346.31 130.12 349.20 95.56 344.01   Q 83.75 342.24 76.36 338.81   C 54.54 328.67 46.76 306.84 40.92 284.82   C 39.63 279.96 37.82 276.77 32.45 277.24   C 28.15 277.61 23.67 278.34 24.67 284.02   C 27.45 299.80 34.86 312.11 44.81 324.36   Q 47.97 328.25 50.37 331.84   C 55.05 338.83 58.99 346.00 68.43 346.22   Q 70.67 346.27 72.89 346.39   Q 73.41 346.42 73.75 346.82   Q 75.89 349.37 75.94 352.75   Q 76.48 385.62 76.84 418.50   Q 76.86 420.21 75.53 422.28   Q 74.80 423.44 72.97 425.26   Q 47.71 450.57 22.51 477.14   Q 21.60 478.10 20.35 477.66   C 15.14 475.82 15.01 469.98 18.56 466.31   Q 31.60 452.80 44.54 439.21   C 50.04 433.44 57.86 426.55 63.19 420.19   C 64.95 418.08 66.01 414.85 65.98 411.83   Q 65.71 376.12 65.33 361.00   C 65.16 354.22 59.34 356.35 55.50 354.45   Q 52.65 353.04 50.91 350.82   Q 44.18 342.19 35.70 330.26   C 24.77 314.88 14.46 300.59 14.49 282.00   C 14.50 272.70 19.81 268.59 28.23 266.51   A 1.00 0.97 -85.6 0 0 28.91 265.91   Q 29.68 263.88 29.20 261.98   Q 20.67 228.41 30.62 195.81   C 33.53 186.25 34.83 178.85 44.22 173.65   C 49.61 170.67 54.79 170.21 63.06 168.97   C 94.03 164.34 125.63 164.34 157.25 164.02   Q 199.60 163.59 235.42 168.82   C 244.41 170.13 248.54 176.96 251.09 185.64   Q 259.00 212.60 255.27 240.50   Q 255.00 242.52 255.37 244.26   A 0.64 0.63 -10.1 0 0 256.09 244.75   C 281.84 240.86 298.99 265.14 296.00 289.01   C 294.01 304.79 285.56 321.37 272.43 330.80   Q 266.36 335.16 260.29 336.58   C 249.87 339.01 245.35 340.10 244.56 351.82   C 244.21 356.93 244.05 362.19 243.06 367.04   Q 240.06 381.71 233.50 395.13   C 227.96 406.43 224.61 414.82 231.67 425.72   C 234.65 430.32 240.56 434.52 244.19 438.56   Q 256.02 451.70 267.90 464.79   C 271.90 469.21 273.73 472.21 268.90 476.91   Q 267.33 478.44 266.05 477.21   Q 240.56 452.90 219.92 426.83   C 217.56 423.85 216.38 420.53 216.15 416.46   C 214.35 384.62 216.45 354.19 219.33 323.25   C 219.57 320.71 219.57 313.69 222.70 312.92   A 2.28 2.28 0.0 0 1 225.49 314.71   Q 226.08 317.75 225.79 321.26   Q 222.40 363.58 221.50 380.25   Q 221.27 384.57 221.97 392.40   Q 222.05 393.37 222.52 392.52   Z   M 210.88 177.02   Q 159.79 173.34 108.64 175.98   C 97.91 176.53 87.45 176.82 76.61 178.43   A 0.48 0.48 0.0 0 0 76.35 179.26   Q 76.63 179.52 77.25 179.55   Q 144.54 182.40 211.83 178.59   A 0.59 0.59 0.0 0 0 212.29 177.67   Q 211.91 177.09 210.88 177.02   Z   M 106.62 338.96   Q 128.32 341.69 149.71 337.31   C 169.93 333.16 185.11 323.22 198.52 307.88   Q 210.69 293.96 219.47 277.51   Q 226.09 265.09 229.39 260.69   Q 233.25 255.56 240.99 254.02   A 1.12 1.12 0.0 0 0 241.79 253.39   Q 242.60 251.63 243.19 248.49   Q 248.97 217.88 241.43 190.11   Q 240.81 187.82 239.26 184.89   Q 239.02 184.43 238.51 184.36   Q 236.34 184.06 234.49 184.75   Q 227.73 187.24 221.48 188.12   Q 202.46 190.80 183.25 190.97   Q 145.50 191.29 107.75 191.42   Q 76.71 191.52 46.39 187.09   A 1.79 1.78 -74.7 0 0 44.48 188.19   C 36.96 206.75 33.59 226.58 37.04 246.31   Q 41.55 272.06 50.82 296.47   Q 56.06 310.26 58.68 314.84   Q 67.71 330.57 85.87 335.78   C 91.84 337.49 99.78 338.11 106.62 338.96   Z"/>
    <path fill="#ffffff" d="   M 267.99 273.85   C 276.22 283.48 270.88 305.05 257.55 307.48   Q 251.95 308.50 246.71 304.60   C 237.12 297.45 237.38 278.23 248.03 271.62   C 253.99 267.92 263.23 268.28 267.99 273.85   Z   M 263.83 294.80   C 265.83 290.15 267.80 278.56 261.31 276.45   C 253.81 274.01 247.35 277.08 246.38 284.89   C 245.75 289.97 246.21 295.28 249.90 299.15   C 254.88 304.38 261.39 300.44 263.83 294.80   Z"/>
</svg>
