<svg width="14" height="15" viewBox="0 0 14 15" fill="none" xmlns="http://www.w3.org/2000/svg">
<path fill-rule="evenodd" clip-rule="evenodd" d="M5 3.5V1H8.5C8.77614 1 9 1.22386 9 1.5V7H10V1.5C10 0.671573 9.32843 0 8.5 0H4.91421C4.51639 0 4.13486 0.158035 3.85355 0.43934L0.43934 3.85355C0.158035 4.13486 0 4.51639 0 4.91421V12.5C0 13.3284 0.671573 14 1.5 14H7V13H1.5C1.22386 13 1 12.7761 1 12.5V5H3.5C4.32843 5 5 4.32843 5 3.5ZM3.5 4H1.70711L4 1.70711V3.5C4 3.77614 3.77614 4 3.5 4Z" fill="#000000"/>
<path d="M11 8.5C11 8.22386 10.7761 8 10.5 8C10.2239 8 10 8.22386 10 8.5V11H7.5C7.22386 11 7 11.2239 7 11.5C7 11.7761 7.22386 12 7.5 12H10V14.5C10 14.7761 10.2239 15 10.5 15C10.7761 15 11 14.7761 11 14.5V12H13.5C13.7761 12 14 11.7761 14 11.5C14 11.2239 13.7761 11 13.5 11H11V8.5Z" fill="#000000"/>
</svg>
