<svg width="16" height="16" viewBox="0 0 16 16" fill="none" xmlns="http://www.w3.org/2000/svg">
<path fill-rule="evenodd" clip-rule="evenodd" d="M0 3.5C0 2.67157 0.671573 2 1.5 2H5.08579C5.48361 2 5.86514 2.15804 6.14645 2.43934L7.20711 3.5H12.5C13.3284 3.5 14 4.17157 14 5V7H13V5C13 4.72386 12.7761 4.5 12.5 4.5H6.79289L5.43934 3.14645C5.34557 3.05268 5.21839 3 5.08579 3H1.5C1.22386 3 1 3.22386 1 3.5V11.5C1 11.7761 1.22386 12 1.5 12H7V13H1.5C0.671573 13 0 12.3284 0 11.5V3.5Z" fill="#CED0D6"/>
<path d="M12 7.5C12 7.22386 11.7761 7 11.5 7C11.2239 7 11 7.22386 11 7.5V10H8.5C8.22386 10 8 10.2239 8 10.5C8 10.7761 8.22386 11 8.5 11H11V13.5C11 13.7761 11.2239 14 11.5 14C11.7761 14 12 13.7761 12 13.5V11H14.5C14.7761 11 15 10.7761 15 10.5C15 10.2239 14.7761 10 14.5 10H12V7.5Z" fill="#CED0D6"/>
</svg>
