<?xml version="1.0" encoding="iso-8859-1"?>
<!-- Uploaded to: SVG Repo, www.svgrepo.com, Generator: SVG Repo Mixer Tools -->
<svg fill="#000000" height="800px" width="800px" version="1.1" id="Layer_1" xmlns="http://www.w3.org/2000/svg" xmlns:xlink="http://www.w3.org/1999/xlink" 
	 viewBox="0 0 460 460" xml:space="preserve">
<g id="XMLID_1123_">
	<g>
		<path d="M400.573,0H59.427c-20.987,0-38,17.013-38,38v384c0,20.987,17.013,38,38,38h341.146c20.987,0,38-17.013,38-38V38
			C438.573,17.013,421.56,0,400.573,0z M144.5,395.85c0,5.789-4.693,10.483-10.483,10.483H80.983
			c-5.79,0-10.483-4.694-10.483-10.483v-53.034c0-5.79,4.693-10.483,10.483-10.483h53.034c5.79,0,10.483,4.693,10.483,10.483V395.85
			z M144.5,278.517c0,5.79-4.693,10.483-10.483,10.483H80.983c-5.79,0-10.483-4.693-10.483-10.483v-53.033
			c0-5.79,4.693-10.483,10.483-10.483h53.034c5.79,0,10.483,4.693,10.483,10.483V278.517z M267,395.85
			c0,5.789-4.694,10.483-10.483,10.483h-53.034c-5.79,0-10.483-4.694-10.483-10.483v-53.034c0-5.79,4.693-10.483,10.483-10.483
			h53.034c5.79,0,10.483,4.693,10.483,10.483V395.85z M267,278.517c0,5.79-4.693,10.483-10.483,10.483h-53.034
			c-5.79,0-10.483-4.693-10.483-10.483v-53.033c0-5.79,4.693-10.483,10.483-10.483h53.034c5.79,0,10.483,4.693,10.483,10.483
			V278.517z M389.5,395.85c0,5.789-4.693,10.483-10.483,10.483h-53.034c-5.79,0-10.483-4.694-10.483-10.483v-53.034
			c0-5.79,4.694-10.483,10.483-10.483h53.034c5.79,0,10.483,4.693,10.483,10.483V395.85z M389.5,278.517
			c0,5.79-4.693,10.483-10.483,10.483h-53.034c-5.79,0-10.483-4.693-10.483-10.483v-53.033c0-5.79,4.694-10.483,10.483-10.483
			h53.034c5.79,0,10.483,4.693,10.483,10.483V278.517z M389.5,151.517c0,5.79-4.693,10.483-10.483,10.483H80.983
			c-5.79,0-10.483-4.693-10.483-10.483V56.483C70.5,50.693,75.193,46,80.983,46h298.034c5.79,0,10.483,4.693,10.483,10.483V151.517z
			"/>
	</g>
</g>
</svg>