<svg width="16" height="16" viewBox="0 0 16 16" fill="none" xmlns="http://www.w3.org/2000/svg">
<path fill-rule="evenodd" clip-rule="evenodd" d="M8 2C4.68629 2 2 4.68629 2 8C2 11.3137 4.68629 14 8 14C11.3137 14 14 11.3137 14 8C14 4.68629 11.3137 2 8 2ZM1 8C1 4.13401 4.13401 1 8 1C11.866 1 15 4.13401 15 8C15 11.866 11.866 15 8 15C4.13401 15 1 11.866 1 8Z" fill="#CED0D6"/>
<path fill-rule="evenodd" clip-rule="evenodd" d="M8 4.5C8.27614 4.5 8.5 4.72386 8.5 5V7.7169L10.7572 9.07125C10.994 9.21333 11.0708 9.52046 10.9287 9.75725C10.7867 9.99404 10.4795 10.0708 10.2428 9.92875L7.74275 8.42875C7.59215 8.33838 7.5 8.17563 7.5 8V5C7.5 4.72386 7.72386 4.5 8 4.5Z" fill="#CED0D6"/>
</svg>