<svg xmlns="http://www.w3.org/2000/svg" xmlns:xlink="http://www.w3.org/1999/xlink" width="16" height="16" viewBox="0 0 16 16">
  <defs>
    <path id="google-small-a" d="M0.73338448,3.89858654 C1.89846565,1.58356538 4.33222507,0 7.1627907,0 C8.98604651,0 10.6139535,0.668223249 11.8837209,1.75010851 L9.8,3.78659841 C9.08372093,3.21383563 8.17209302,2.86381392 7.1627907,2.86381392 C5.28417387,2.86381392 3.69829556,4.04909826 3.14246668,5.69906842 L0.73338448,3.89858654 Z"/>
    <path id="google-small-b" d="M0.73338448,10.1022815 C0.263523597,9.16866599 0,8.1160868 0,7.00043404 C0,5.88478127 0.263523597,4.83220208 0.73338448,3.89858654 L3.14246668,5.69906842 C3.00471809,6.10797315 2.93023256,6.54541773 2.93023256,7.00043404 C2.93023256,7.45545034 3.00471809,7.89289492 3.14246668,8.30179965 L0.73338448,10.1022815 Z"/>
    <path id="google-small-c" d="M0.732415099,10.1003546 L3.14051515,8.29599203 C3.69457584,9.94898776 5.28197045,11.1370541 7.1627907,11.1370541 C9.14883721,11.1370541 10.6465116,10.1506294 11.0046512,8.432341 L7.1627907,8.432341 L7.1627907,6.70496117 L13.8372093,6.70496117 C13.9348837,7.11862318 14,6.58677202 14,7.00043404 C14,11.4552557 10.744186,14.0008681 7.1627907,14.0008681 C4.33143979,14.0008681 1.8971153,12.4164239 0.732415099,10.1003546 Z"/>
    <path id="google-small-d" d="M11.8314497,12.2573993 L9.54438814,10.5269053 C10.2921839,10.0656683 10.8124745,9.35436983 11.0046512,8.432341 L7.1627907,8.432341 L7.1627907,6 L13.8372093,6 C13.9348837,6.41366201 14,6.58677202 14,7.00043404 C14,9.28209155 13.1459175,11.0629151 11.8314497,12.2573993 Z"/>
  </defs>
  <g fill="none" fill-rule="evenodd" transform="translate(1 1)">
    <use fill="#EA4335" xlink:href="#google-small-a"/>
    <use fill="#FBBC05" xlink:href="#google-small-b"/>
    <use fill="#34A853" xlink:href="#google-small-c"/>
    <use fill="#4285F4" xlink:href="#google-small-d"/>
  </g>
</svg>
