<?xml version='1.0' encoding='utf-8'?>
<!DOCTYPE svg PUBLIC '-//W3C//DTD SVG 1.1//EN' 'http://www.w3.org/Graphics/SVG/1.1/DTD/svg11.dtd'>
<svg fill="#AFBBC4" height="16px" width="16px" version="1.1" xmlns="http://www.w3.org/2000/svg" viewBox="0 0 512 512" xmlns:xlink="http://www.w3.org/1999/xlink" enable-background="new 0 0 512 512">
  <g>
    <g>
      <path d="m467.4,466.1l-192-192 104.8-104.8c4.8-4.6 10.8-17.6 0-28.9l-123.6-123.6c-7.7-7.7-21.2-7.7-28.9,3.55271e-15l-155.7,155.7c-3.4,3.4-5.5,8-5.9,12.8l-12.4,153.2c-0.5,6 1.7,11.9 5.9,16.1l53.3,53.3c11.1,10.8 24.7,4.9 28.9,0l104.8-104.8 192,192c4,4 9.2,6 14.4,6 5.2,0 10.5-2 14.4-6 8-8.1 8-21 0-29zm-340.1-101.5l-32.1-32.1 11-136.4 136-136 94.8,94.8-209.7,209.7z"/>
    </g>
  </g>
</svg>
