<?xml version="1.0" standalone="no"?>
<!DOCTYPE svg PUBLIC "-//W3C//DTD SVG 20010904//EN"
 "http://www.w3.org/TR/2001/REC-SVG-20010904/DTD/svg10.dtd">
<svg version="1.0" xmlns="http://www.w3.org/2000/svg"
 width="14px" height="14px" viewBox="0 0 256.000000 256.000000"
 preserveAspectRatio="xMidYMid meet">

<g transform="translate(0.000000,256.000000) scale(0.100000,-0.100000)"
fill="black" stroke="none">
<path d="M861 2422 c-66 -15 -89 -24 -108 -46 -24 -29 -30 -74 -13 -106 6 -10
111 -92 235 -180 124 -89 225 -166 225 -171 0 -5 -23 -40 -51 -78 -49 -68 -55
-85 -48 -151 1 -8 -193 -285 -431 -615 -238 -330 -439 -614 -446 -632 -20 -48
-18 -137 5 -182 74 -143 280 -186 379 -79 13 14 215 292 450 617 l427 592 100
5 c55 2 109 6 119 7 16 2 23 -12 42 -90 28 -113 41 -133 112 -178 114 -71 142
-54 323 195 170 235 173 240 166 297 -5 50 -27 78 -97 125 l-45 30 -111 -6
-110 -6 -22 93 c-13 54 -32 104 -45 120 -36 44 -446 333 -532 376 -111 55
-181 72 -320 77 -91 3 -140 -1 -204 -14z m341 -121 c42 -11 102 -33 134 -49
50 -26 444 -300 482 -336 7 -7 21 -49 32 -95 26 -107 41 -135 86 -156 33 -15
49 -16 128 -8 78 9 95 8 120 -6 58 -32 58 -33 -88 -236 -76 -105 -142 -191
-149 -193 -7 -1 -26 10 -42 25 -26 23 -34 43 -49 117 -16 74 -25 94 -52 121
-39 39 -59 43 -175 32 l-86 -9 -154 111 c-85 62 -155 116 -157 121 -2 5 24 47
57 93 34 46 61 93 61 104 0 27 -29 52 -263 218 -108 77 -197 143 -197 147 -1
24 218 23 312 -1z m183 -839 c-9 -26 -828 -1158 -861 -1190 -49 -47 -97 -45
-155 7 -82 72 -104 33 394 723 l438 607 94 -67 c55 -40 92 -72 90 -80z"/>
</g>
</svg>
