<svg xmlns="http://www.w3.org/2000/svg" width="14" height="14" viewBox="0 0 16 16" fill="none">
  <!-- Task/Spec checklist icon -->
  <g fill="#6E6E6E">
    <!-- Document outline -->
    <path d="M4 1.5C4 1.22 4.22 1 4.5 1h5.29c.13 0 .26.05.35.15l2.71 2.71c.1.1.15.22.15.35V14.5c0 .28-.22.5-.5.5h-8c-.28 0-.5-.22-.5-.5V1.5z" fill="none" stroke="#6E6E6E" stroke-width="1"/>
    <!-- Checkbox 1 (checked) -->
    <rect x="5.5" y="5" width="2" height="2" rx="0.3" stroke="#6E6E6E" stroke-width="0.6" fill="none"/>
    <path d="M5.8 6.1l0.5 0.5 1-1" stroke="#6E6E6E" stroke-width="0.6" fill="none" stroke-linecap="round" stroke-linejoin="round"/>
    <!-- Line 1 -->
    <rect x="8.5" y="5.5" width="3" height="1" rx="0.3"/>
    <!-- Checkbox 2 (unchecked) -->
    <rect x="5.5" y="8" width="2" height="2" rx="0.3" stroke="#6E6E6E" stroke-width="0.6" fill="none"/>
    <!-- Line 2 -->
    <rect x="8.5" y="8.5" width="3" height="1" rx="0.3"/>
    <!-- Checkbox 3 (unchecked) -->
    <rect x="5.5" y="11" width="2" height="2" rx="0.3" stroke="#6E6E6E" stroke-width="0.6" fill="none"/>
    <!-- Line 3 -->
    <rect x="8.5" y="11.5" width="3" height="1" rx="0.3"/>
  </g>
</svg>
