<svg xmlns="http://www.w3.org/2000/svg" width="16" height="16" viewBox="0 0 16 16" fill="none">
  <g fill="#6E6E6E">
    <!-- Hat brim -->
    <path d="M2.5 6.5C2.5 6.22 2.72 6 3 6h10c.28 0 .5.22.5.5s-.22.5-.5.5H3C2.72 7 2.5 6.78 2.5 6.5z"/>
    <!-- Hat top -->
    <path d="M5.5 6V4.5C5.5 3.12 6.62 2 8 2s2.5 1.12 2.5 2.5V6h-5z"/>
    <!-- Face -->
    <ellipse cx="8" cy="8.8" rx="2.8" ry="2.4"/>
    <!-- Eye mask band -->
    <rect x="5.2" y="8" width="5.6" height="1.4" rx="0.7" fill="#6E6E6E"/>
    <!-- Eyes -->
    <circle cx="6.8" cy="8.7" r="0.5" fill="white"/>
    <circle cx="9.2" cy="8.7" r="0.5" fill="white"/>
    <!-- Body -->
    <path d="M4 14.5c0-2.2 1.79-4 4-4s4 1.8 4 4H4z"/>
  </g>
</svg>
