<?xml version="1.0" encoding="UTF-8"?>
<svg width="16" height="16" viewBox="0 0 16 16" fill="none" xmlns="http://www.w3.org/2000/svg">
  <path d="M12.8 0H3.2C2.35131 0 1.53737 0.337142 0.937258 0.937258C0.337142 1.53737 0 2.35131 0 3.2V12.8C0 13.6487 0.337142 14.4626 0.937258 15.0627C1.53737 15.6629 2.35131 16 3.2 16H12.8C13.6487 16 14.4626 15.6629 15.0627 15.0627C15.6629 14.4626 16 13.6487 16 12.8V3.2C16 2.35131 15.6629 1.53737 15.0627 0.937258C14.4626 0.337142 13.6487 0 12.8 0ZM14.4 12.8C14.4 13.1183 14.2736 13.4235 14.0485 13.6485C13.8235 13.8736 13.5183 14 13.2 14H2.8C2.48174 14 2.17652 13.8736 1.95147 13.6485C1.72643 13.4235 1.6 13.1183 1.6 12.8V3.2C1.6 2.88174 1.72643 2.57652 1.95147 2.35147C2.17652 2.12643 2.48174 2 2.8 2H13.2C13.5183 2 13.8235 2.12643 14.0485 2.35147C14.2736 2.57652 14.4 2.88174 14.4 3.2V12.8ZM12 4H4C3.78783 4 3.58434 4.08429 3.43431 4.23431C3.28429 4.38434 3.2 4.58783 3.2 4.8C3.2 5.01217 3.28429 5.21566 3.43431 5.36569C3.58434 5.51571 3.78783 5.6 4 5.6H12C12.2122 5.6 12.4157 5.51571 12.5657 5.36569C12.7157 5.21566 12.8 5.01217 12.8 4.8C12.8 4.58783 12.7157 4.38434 12.5657 4.23431C12.4157 4.08429 12.2122 4 12 4ZM12 6.4H4C3.78783 6.4 3.58434 6.48429 3.43431 6.63431C3.28429 6.78434 3.2 6.98783 3.2 7.2C3.2 7.41217 3.28429 7.61566 3.43431 7.76569C3.58434 7.91571 3.78783 8 4 8H12C12.2122 8 12.4157 7.91571 12.5657 7.76569C12.7157 7.61566 12.8 7.41217 12.8 7.2C12.8 6.98783 12.7157 6.78434 12.5657 6.63431C12.4157 6.48429 12.2122 6.4 12 6.4ZM8 8.8H4C3.78783 8.8 3.58434 8.88429 3.43431 9.03431C3.28429 9.18434 3.2 9.38783 3.2 9.6C3.2 9.81217 3.28429 10.0157 3.43431 10.1657C3.58434 10.3157 3.78783 10.4 4 10.4H8C8.21217 10.4 8.41566 10.3157 8.56569 10.1657C8.71571 10.0157 8.8 9.81217 8.8 9.6C8.8 9.38783 8.71571 9.18434 8.56569 9.03431C8.41566 8.88429 8.21217 8.8 8 8.8Z" fill="#6c757d"/>
</svg>
