<?xml version="1.0" encoding="UTF-8"?>
<svg width="16" height="16" viewBox="0 0 16 16" fill="none" xmlns="http://www.w3.org/2000/svg">
  <path d="M15.1682 3.9624L12.0376 0.831802C11.7599 0.554115 11.3904 0.399902 11.0052 0.399902C10.62 0.399902 10.2505 0.554115 9.97276 0.831802L7.59995 3.2046V1.6C7.59995 1.17565 7.43131 0.768688 7.13125 0.468629C6.83119 0.16857 6.42423 0 5.99988 0H1.99997C1.57562 0 1.16866 0.16857 0.868602 0.468629C0.568542 0.768688 0.399973 1.17565 0.399973 1.6V14.4C0.399973 14.8243 0.568542 15.2313 0.868602 15.5314C1.16866 15.8314 1.57562 16 1.99997 16H5.99988C6.42423 16 6.83119 15.8314 7.13125 15.5314C7.43131 15.2313 7.59995 14.8243 7.59995 14.4V12.7954L9.97276 15.1682C10.2505 15.4459 10.62 15.6001 11.0052 15.6001C11.3904 15.6001 11.7599 15.4459 12.0376 15.1682L15.1682 12.0376C15.4459 11.7599 15.6001 11.3904 15.6001 11.0052C15.6001 10.62 15.4459 10.2505 15.1682 9.97276L12.7954 7.59995L15.1682 5.22714C15.4459 4.94937 15.6001 4.57986 15.6001 4.19473C15.6001 3.8096 15.4459 3.44009 15.1682 3.16232V3.9624ZM5.99988 14.4H1.99997V1.6H5.99988V14.4ZM13.8114 4.55118L11.4386 6.92399C11.3007 7.06191 11.1954 7.2321 11.1304 7.41836C11.0654 7.60462 11.0422 7.80234 11.0624 7.99729C11.0825 8.19225 11.1455 8.38007 11.2469 8.54841C11.3482 8.71675 11.4856 8.86099 11.6491 8.97118L13.4682 10.3522L11.0052 12.8114L7.59995 9.40618V6.59371L11.0052 3.18855L13.4682 5.64777L13.8114 4.55118Z" fill="#6c757d"/>
</svg>
